# xmcd
#
# Track frame offsets:
#	150
#	10452
#	23035
#	36147
#	53635
#	66400
#	85822
#	96675
#	107365
#	119555
#	134317
#	148330
#	158482
#	172662
#	186547
#	199487
#	211540
#	222475
#
# Disc length: 3161 seconds
#
# Revision: 1
# Processed by: cddbd v1.5.1PL0 Copyright (c) Steve Scherf et al.
# Submitted via: CDex 1.50Beta5
#
DISCID=080c5712
DTITLE=Various Artist - <ちょっとコレクション>青春の歌声
DYEAR=1991
DGENRE=Soundtrack
TTITLE0=布施　明/若い明日
TTITLE1=布施　明/これが青春だ
TTITLE2=九重佑三子/コメットさん
TTITLE3=竜　雷太/愛の子守歌
TTITLE4=浜畑賢吉/進め!青春
TTITLE5=ザ・バーズ/アテンション・プリーズ
TTITLE6=岡崎友紀/おくさまは18歳
TTITLE7=河崎いち子とヤング・フレッシュ/ハレンチ学園ソング
TTITLE8=ザ・ヴァイオレッツ/レモンの天使
TTITLE9=森田健作/さらば涙と言おう
TTITLE10=新藤恵美/美しきチャレンジャー
TTITLE11=桜木健一/コンクリート・ジャングル
TTITLE12=桜木健一/太陽の恋人
TTITLE13=中村洋子/赤い靴
TTITLE14=中村洋子/待つのつらい
TTITLE15=沢まきこ/決めろ!フィニッシュ
TTITLE16=岡崎友紀/風に乗って
TTITLE17=大場久美子/キラキラ星あげる
EXTD=
EXTT0=
EXTT1=
EXTT2=
EXTT3=
EXTT4=
EXTT5=
EXTT6=
EXTT7=
EXTT8=
EXTT9=
EXTT10=
EXTT11=
EXTT12=
EXTT13=
EXTT14=
EXTT15=
EXTT16=
EXTT17=
PLAYORDER=
